<svg width="360px" height="384px" viewBox="0 0 360 384" preserveAspectRatio="xMinYMin meet" xmlns="http://www.w3.org/2000/svg" xmlns:xlink="http://www.w3.org/1999/xlink" version="1.1"><style type="text/css"><![CDATA[@import url("https://fonts.googleapis.com/css2?family=Kosugi+Maru&display=swap");]]></style><defs><filter id="receiptlineinvert" x="0" y="0" width="100%" height="100%"><feFlood flood-color="#000"/><feComposite in="SourceGraphic" operator="xor"/></filter></defs><g font-family="'Kosugi Maru', 'MS Gothic', 'San Francisco', 'Osaka-Mono', monospace" fill="#000" font-size="24" dominant-baseline="text-after-edge" text-anchor="middle" xml:lang="ja"><g transform="translate(0,48)"><text transform="scale(2,2)" x="12,24,36,48,60,72,84,96,108,120,132,144,156,168">PyCon&#xa0;JP&#xa0;Store</text></g><g transform="translate(0,72)"><text x="6">&#xa0;</text></g><g transform="translate(0,96)"><text x="30,54,78,102,126,150,174,198,222,246,270,294,318,336">東京都千代田区神田美土代町7</text></g><g transform="translate(0,120)"><text x="6">&#xa0;</text></g><g transform="translate(0,144)"><text x="36,48,60,72,90,108,120,132,150,168,180,198,216,234,252,264,276,288,300,312,324">2021年&#xa0;10月15日(金)&#xa0;16:00</text></g><g transform="translate(0,144)"><path d="M6,24v-6q0,-6,6,-6h336q6,0,6,6v6" fill="none" stroke="#000" stroke-width="2"/></g><g transform="translate(0,168)"><path d="M6,0v24m348,-24v24" fill="none" stroke="#000" stroke-width="2"/></g><g transform="translate(0,192)"><text transform="scale(2,1)" x="42,66,90,114,138">領　収　証</text></g><g transform="translate(0,192)"><path d="M6,0v6q0,6,6,6h336q6,0,6,-6v-6" fill="none" stroke="#000" stroke-width="2"/></g><g transform="translate(0,240)"><text x="12,36,60,84">チケット</text><text x="222">1</text><text x="294,306,318,330,342,354">¥2,000</text></g><g transform="translate(0,264)"><text x="6,24,48,72">Tシャツ</text><text x="222">1</text><text x="294,306,318,330,342,354">¥3,500</text></g><g transform="translate(0,288)"><text x="12,36,60,84,108">ステッカー</text><text x="222">3</text><text x="318,330,342,354">¥600</text></g><g transform="translate(0,288)"><path d="M0,12h360" fill="none" stroke="#000" stroke-width="2"/></g><g transform="translate(0,336)"><text transform="scale(2,1)" x="12,36">合計</text><text transform="scale(2,1)" x="114,126,138,150,162,174">¥6,100</text></g><g transform="translate(0,360)"><text x="12,36,60,84">現　　金</text><text x="282,294,306,318,330,342,354">¥10,000</text></g><g transform="translate(0,384)"><text x="12,30,48,66,84">お&#xa0;釣&#xa0;り</text><text x="294,306,318,330,342,354">¥3,900</text></g></g></svg>
